# Blender v2.79 (sub 0) OBJ File: 'Boat.blend'
# www.blender.org
mtllib Boat.mtl
o Boat_Cube.004
v 1.578827 -0.028213 1.292099
v 1.750481 0.462453 1.758380
v 1.524257 -0.028213 -3.045172
v 1.684273 0.462453 -3.817734
v 2.167851 0.462453 -1.413255
v 1.922838 -0.028213 -1.260114
v 1.784934 0.936418 -4.371551
v 1.389288 0.462453 -3.394016
v 1.801987 0.462453 -1.298546
v 1.445791 0.462453 1.507632
v 2.334378 0.936418 -1.487068
v 1.860159 0.936418 2.164571
v 1.652909 0.905349 2.004597
v 1.582818 0.905349 -4.122996
v 2.094762 0.905349 -1.432508
v 1.746895 0.762877 -4.085719
v 1.817287 0.762877 1.935853
v 2.261036 0.762877 -1.458510
v 1.784934 1.631883 -4.371551
v 2.334378 1.631883 -1.487068
v 1.860159 1.631883 2.164571
v 1.652909 1.664638 2.004597
v 1.582818 1.664638 -4.122996
v 2.094762 1.664638 -1.432508
v 1.647655 0.370406 -3.583457
v 1.710009 0.370406 1.582442
v 2.103088 0.370406 -1.384085
v 0.284104 0.462453 3.163440
v 0.235869 -0.028213 2.450196
v 0.406270 0.462453 2.706750
v 0.314924 0.936418 3.761008
v 0.464471 0.905349 3.451530
v 0.302877 0.762877 3.633903
v 0.297743 1.631883 3.883584
v 0.464471 1.664638 3.451530
v 0.272731 0.370406 3.058866
v 0.235869 -0.028213 2.770960
v 0.302877 0.762877 3.876029
v 0.272731 0.370406 3.381580
v 0.284104 0.462453 3.492490
v 0.314924 0.936418 3.976902
v 0.314924 1.631883 4.139377
v 0.297743 1.981444 3.933066
v 0.314924 1.981444 4.188860
v -1.578827 -0.028213 1.292099
v -1.750481 0.462453 1.758380
v -1.524257 -0.028213 -3.045172
v -1.684273 0.462453 -3.817734
v -2.167851 0.462453 -1.413255
v -1.922838 -0.028213 -1.260114
v -1.784934 0.936418 -4.371551
v -1.389288 0.462453 -3.394016
v -1.801987 0.462453 -1.298546
v -1.445791 0.462453 1.507632
v -2.334378 0.936418 -1.487068
v -1.860159 0.936418 2.164571
v -1.652909 0.905349 2.004597
v -1.582818 0.905349 -4.122996
v -2.094762 0.905349 -1.432508
v -1.746895 0.762877 -4.085719
v -1.817287 0.762877 1.935853
v -2.261036 0.762877 -1.458510
v -1.784934 1.631883 -4.371551
v -2.334378 1.631883 -1.487068
v -1.860159 1.631883 2.164571
v -1.652909 1.664638 2.004597
v -1.582818 1.664638 -4.122996
v -2.094762 1.664638 -1.432508
v -1.647655 0.370406 -3.583457
v -1.710009 0.370406 1.582442
v -2.103088 0.370406 -1.384085
v -0.284104 0.462453 3.163440
v -0.235869 -0.028213 2.450196
v -0.406270 0.462453 2.706750
v -0.314924 0.936418 3.761008
v -0.464471 0.905349 3.451530
v -0.302877 0.762877 3.633903
v -0.297743 1.631883 3.883584
v -0.464471 1.664638 3.451530
v -0.272731 0.370406 3.058866
v -0.235869 -0.028213 2.770960
v -0.302877 0.762877 3.876029
v -0.272731 0.370406 3.381580
v -0.284104 0.462453 3.492490
v -0.314924 0.936418 3.976902
v -0.314924 1.631883 4.139377
v -0.297743 1.981444 3.933066
v -0.314924 1.981444 4.188860
v 0.000000 0.462453 -3.817734
v 0.000000 -0.028213 1.292099
v 0.000000 -0.028213 -3.045172
v 0.000000 0.462453 1.507632
v 0.000000 -0.028213 -1.260114
v 0.000000 -0.028213 2.450196
v 0.000000 0.462453 -3.394016
v 0.000000 0.462453 -1.298546
v 0.000000 0.936418 -4.821855
v -0.000000 0.704757 -4.392532
v -0.066476 0.703765 -4.554097
v 0.000000 1.631883 -4.821855
v -0.000000 1.664638 -4.601225
v 0.000000 0.370406 -3.583457
v 0.000000 0.462453 2.706750
v -0.000000 0.905349 3.713818
v 0.000000 1.631883 3.883584
v -0.000000 1.664638 3.713818
v 0.000000 -0.028213 2.770960
v 0.000000 0.762877 3.876029
v 0.000000 0.370406 3.381580
v 0.000000 0.462453 3.492490
v 0.000000 0.936418 3.976902
v 0.000000 1.631883 4.139377
v 0.000000 1.981444 3.933066
v 0.000000 1.981444 4.188860
vn 0.0000 -0.9307 -0.3657
vn 0.5684 -0.6311 0.5279
vn 0.0000 -1.0000 0.0000
vn 0.9155 -0.3832 0.1223
vn 0.8580 -0.4796 -0.1839
vn 0.0000 -0.8036 -0.5951
vn 0.8829 -0.4376 -0.1704
vn 0.9186 -0.3766 0.1197
vn 0.0782 -0.8773 -0.4735
vn 0.9516 -0.2809 0.1248
vn 0.9242 -0.3352 -0.1832
vn 0.5496 -0.6475 0.5279
vn 0.7556 -0.6367 -0.1541
vn 0.8232 -0.5572 0.1087
vn 0.4953 -0.6939 0.5227
vn 0.4337 -0.7880 0.4370
vn -0.5684 -0.6311 0.5279
vn -0.9155 -0.3832 0.1223
vn -0.8580 -0.4796 -0.1839
vn -0.8829 -0.4376 -0.1704
vn -0.9186 -0.3766 0.1197
vn -0.9516 -0.2809 0.1248
vn -0.9242 -0.3352 -0.1832
vn -0.5496 -0.6475 0.5279
vn -0.7556 -0.6367 -0.1541
vn -0.8232 -0.5572 0.1087
vn -0.4953 -0.6939 0.5227
vn -0.4337 -0.7880 0.4370
vn 0.1575 -0.8101 -0.5647
vn -0.1695 -0.7904 -0.5887
vn -0.0802 -0.8816 -0.4652
vn -0.1336 0.8862 -0.4436
vn -0.7954 0.5863 0.1537
vn -0.4917 0.0000 -0.8708
vn 0.0000 1.0000 0.0000
vn -0.8462 0.5218 -0.1082
vn 0.2446 0.0000 -0.9696
vn 0.7286 -0.0512 0.6830
vn 0.0951 0.9289 0.3578
vn 0.0341 0.9917 -0.1238
vn 0.1408 0.9899 0.0182
vn 0.1166 0.9880 0.1013
vn 0.1300 0.9912 -0.0248
vn -0.0411 0.9920 0.1194
vn -0.9918 0.0000 -0.1275
vn 0.9823 0.0000 -0.1871
vn 0.9917 0.0000 0.1288
vn -0.9824 0.0000 0.1869
vn 0.9925 -0.1226 0.0000
vn 0.9977 0.0095 -0.0670
vn 0.2353 0.1171 0.9648
vn 0.9976 -0.0693 0.0000
vn -0.5064 0.7495 -0.4264
vn -0.7728 0.0000 -0.6347
vn 0.9958 -0.0921 0.0000
vn 0.0000 -0.2275 0.9738
vn 0.0000 0.1402 -0.9901
vn 0.0000 -0.7695 0.6386
vn 0.0000 -0.5025 0.8646
vn 0.0000 -0.7872 0.6166
vn 0.0000 -0.8374 0.5466
vn 0.9991 0.0198 -0.0364
vn 0.9981 -0.0624 0.0000
vn 0.0000 -0.1402 0.9901
vn 0.7954 0.5863 0.1537
vn 0.8462 0.5218 -0.1082
vn -0.7286 -0.0512 0.6830
vn -0.1408 0.9899 0.0182
vn -0.1166 0.9880 0.1013
vn -0.1300 0.9912 -0.0248
vn 0.9918 0.0000 -0.1275
vn -0.9823 0.0000 -0.1871
vn -0.9917 0.0000 0.1288
vn 0.9824 0.0000 0.1869
vn -0.9925 -0.1226 0.0000
vn -0.9977 0.0095 -0.0670
vn -0.9976 -0.0693 0.0000
vn 0.5064 0.7495 -0.4264
vn 0.7728 0.0000 -0.6347
vn -0.9958 -0.0921 0.0000
vn -0.9991 0.0198 -0.0364
vn -0.9981 -0.0624 0.0000
vn -0.2353 0.1171 0.9648
vn 0.0411 0.9920 0.1194
vn -0.0341 0.9917 -0.1238
vn -0.0951 0.9289 0.3578
vn -0.2446 0.0000 -0.9696
vn 0.4917 0.0000 -0.8708
vn 0.1336 0.8862 -0.4436
usemtl DarkWood
s off
f 102//1 69//1 48//1 89//1
f 33//2 17//2 12//2 31//2
f 93//3 50//3 47//3 91//3
f 27//4 26//4 1//4 6//4
f 94//3 73//3 45//3 90//3
f 25//5 27//5 6//5 3//5
f 90//3 45//3 50//3 93//3
f 91//6 47//6 69//6 102//6
f 18//7 16//7 7//7 11//7
f 17//8 18//8 11//8 12//8
f 89//9 99//9 16//9 4//9
f 2//10 5//10 18//10 17//10
f 5//11 4//11 16//11 18//11
f 28//12 2//12 17//12 33//12
f 4//13 5//13 27//13 25//13
f 5//14 2//14 26//14 27//14
f 1//15 26//15 36//15 29//15
f 26//16 2//16 28//16 36//16
f 77//17 75//17 56//17 61//17
f 71//18 50//18 45//18 70//18
f 69//19 47//19 50//19 71//19
f 62//20 55//20 51//20 60//20
f 61//21 56//21 55//21 62//21
f 46//22 61//22 62//22 49//22
f 49//23 62//23 60//23 48//23
f 72//24 77//24 61//24 46//24
f 48//25 69//25 71//25 49//25
f 49//26 71//26 70//26 46//26
f 45//27 73//27 80//27 70//27
f 70//28 80//28 72//28 46//28
f 99//29 97//29 7//29 16//29
f 60//30 51//30 97//30 99//30
f 48//31 60//31 99//31 89//31
f 3//6 91//6 102//6 25//6
f 1//3 90//3 93//3 6//3
f 29//3 94//3 90//3 1//3
f 6//3 93//3 91//3 3//3
f 25//1 102//1 89//1 4//1
usemtl Wood
f 103//32 104//32 32//32 30//32
f 8//33 9//33 15//33 14//33
f 104//34 106//34 35//34 32//34
f 96//35 9//35 8//35 95//35
f 92//35 103//35 30//35 10//35
f 9//36 10//36 13//36 15//36
f 97//37 100//37 19//37 7//37
f 31//38 12//38 21//38 34//38
f 98//39 58//39 52//39 95//39
f 92//35 10//35 9//35 96//35
f 100//40 101//40 23//40 19//40
f 21//41 20//41 24//41 22//41
f 34//42 21//42 22//42 35//42
f 20//43 19//43 23//43 24//43
f 106//44 79//44 78//44 105//44
f 15//45 13//45 22//45 24//45
f 11//46 7//46 19//46 20//46
f 12//47 11//47 20//47 21//47
f 14//48 15//48 24//48 23//48
f 36//49 28//49 40//49 39//49
f 42//50 34//50 43//50 44//50
f 107//3 81//3 73//3 94//3
f 101//51 67//51 58//51 98//51
f 33//52 31//52 41//52 38//52
f 10//53 30//53 32//53 13//53
f 13//54 32//54 35//54 22//54
f 29//55 36//55 39//55 37//55
f 112//56 86//56 85//56 111//56
f 105//57 113//57 43//57 34//57
f 109//58 39//58 40//58 110//58
f 111//59 85//59 82//59 108//59
f 108//60 82//60 84//60 110//60
f 107//61 37//61 39//61 109//61
f 31//62 34//62 42//62 41//62
f 28//63 33//63 38//63 40//63
f 114//64 88//64 86//64 112//64
f 113//35 114//35 44//35 43//35
f 52//65 58//65 59//65 53//65
f 53//66 59//66 57//66 54//66
f 75//67 78//67 65//67 56//67
f 65//68 66//68 68//68 64//68
f 78//69 79//69 66//69 65//69
f 64//70 68//70 67//70 63//70
f 59//71 68//71 66//71 57//71
f 55//72 64//72 63//72 51//72
f 56//73 65//73 64//73 55//73
f 58//74 67//74 68//74 59//74
f 80//75 83//75 84//75 72//75
f 86//76 88//76 87//76 78//76
f 77//77 82//77 85//77 75//77
f 54//78 57//78 76//78 74//78
f 57//79 66//79 79//79 76//79
f 73//80 81//80 83//80 80//80
f 75//81 85//81 86//81 78//81
f 72//82 84//82 82//82 77//82
f 87//35 88//35 114//35 113//35
f 44//64 114//64 112//64 42//64
f 81//61 107//61 109//61 83//61
f 38//60 108//60 110//60 40//60
f 41//59 111//59 108//59 38//59
f 83//58 109//58 110//58 84//58
f 78//57 87//57 113//57 105//57
f 42//56 112//56 111//56 41//56
f 23//83 101//83 98//83 14//83
f 37//3 107//3 94//3 29//3
f 35//84 106//84 105//84 34//84
f 63//85 67//85 101//85 100//85
f 54//35 92//35 96//35 53//35
f 14//86 98//86 95//86 8//86
f 51//87 63//87 100//87 97//87
f 54//35 74//35 103//35 92//35
f 53//35 96//35 95//35 52//35
f 76//88 79//88 106//88 104//88
f 74//89 76//89 104//89 103//89
