# Blender v2.79 (sub 0) OBJ File: 'Worm.blend'
# www.blender.org
mtllib Worm.mtl
o Worm_Cylinder.014
v -0.077605 0.018352 -0.108355
v -0.108934 0.026228 -0.025600
v -0.113989 0.040365 -0.121417
v -0.138278 0.044302 -0.036509
v -0.113986 0.084390 -0.121418
v -0.138278 0.080452 -0.036509
v -0.076680 0.106402 -0.108675
v -0.108934 0.098527 -0.025600
v -0.038811 0.084390 -0.096126
v -0.079589 0.080452 -0.014690
v -0.040306 0.040365 -0.095609
v -0.079589 0.044302 -0.014690
v -0.011213 0.001792 -0.185666
v -0.035700 0.032085 -0.232581
v -0.035117 0.092670 -0.232783
v -0.009291 0.122963 -0.186331
v 0.017612 0.092670 -0.140252
v 0.014901 0.032085 -0.139314
v 0.101238 0.001792 -0.178131
v 0.113095 0.032085 -0.223416
v 0.115590 0.092670 -0.224279
v 0.105026 0.122962 -0.179441
v 0.092441 0.092670 -0.133905
v 0.088807 0.032085 -0.132648
v 0.200809 0.001792 -0.086941
v 0.228493 0.032085 -0.114619
v 0.232823 0.092670 -0.116116
v 0.205940 0.122962 -0.088716
v 0.177148 0.092670 -0.060655
v 0.171617 0.032085 -0.058742
v 0.219610 0.001792 0.026201
v 0.254519 0.032085 0.044394
v 0.267053 0.092670 0.040059
v 0.227543 0.122962 0.023355
v 0.187633 0.092670 0.006838
v 0.181805 0.032085 0.008937
v 0.168626 0.001792 0.105410
v 0.186687 0.032085 0.153313
v 0.198764 0.092670 0.147646
v 0.189444 0.122962 0.103731
v 0.161056 0.092670 0.063209
v 0.149475 0.032085 0.062019
v 0.110624 0.041922 0.144765
v 0.101131 0.072215 0.198708
v 0.112884 0.132800 0.191841
v 0.135507 0.163092 0.145637
v 0.138725 0.132800 0.098419
v 0.124495 0.072215 0.097057
v 0.043624 0.113582 0.115204
v 0.000314 0.143875 0.134788
v -0.004727 0.204460 0.136756
v 0.053523 0.234753 0.113774
v 0.101751 0.204460 0.094662
v 0.096114 0.143875 0.093991
v -0.000839 0.175211 0.028629
v -0.053239 0.205503 0.031311
v -0.053239 0.266088 0.031311
v -0.000839 0.296381 0.028629
v 0.051561 0.266088 0.025947
v 0.051561 0.205503 0.025947
v -0.006216 0.223485 -0.076418
v -0.049513 0.253778 -0.046782
v -0.049513 0.314363 -0.046782
v -0.006216 0.344655 -0.076418
v 0.037081 0.314363 -0.106054
v 0.037081 0.253778 -0.106054
v -0.099396 0.265907 -0.131314
v -0.111468 0.296155 -0.080227
v -0.110800 0.356736 -0.080015
v -0.098062 0.387069 -0.130890
v -0.085990 0.356820 -0.181977
v -0.086658 0.296239 -0.182189
v -0.187617 0.265856 -0.103327
v -0.148725 0.295597 -0.067643
v -0.148057 0.356178 -0.067430
v -0.186282 0.387018 -0.102903
v -0.225175 0.357277 -0.138588
v -0.225842 0.296696 -0.138800
v -0.177525 0.322773 0.043626
v -0.126433 0.346232 0.021046
v -0.125486 0.403558 0.001467
v -0.175630 0.437427 0.004469
v -0.226722 0.413968 0.027049
v -0.227670 0.356642 0.046628
v -0.142662 0.359515 0.152892
v -0.096259 0.379304 0.119340
v -0.095312 0.436630 0.099761
v -0.140768 0.474168 0.113735
v -0.187171 0.454380 0.147287
v -0.188118 0.397053 0.166866
v -0.121547 0.393681 0.180944
v -0.093215 0.405763 0.160457
v -0.092636 0.440766 0.148503
v -0.120391 0.463686 0.157035
v -0.148724 0.451604 0.177521
v -0.149302 0.416601 0.189476
v -0.137222 0.049004 -0.015980
v -0.115510 0.035630 -0.007909
v -0.137222 0.075751 -0.015980
v -0.115510 0.089124 -0.007909
v -0.093799 0.075751 0.000163
v -0.093799 0.049004 0.000163
v -0.095312 0.404811 0.099761
v -0.111064 0.422400 0.076059
v -0.077637 0.422400 0.077456
v -0.068636 0.422400 0.109679
v -0.096501 0.422400 0.128196
v -0.122722 0.422400 0.107418
v -0.094123 0.450861 0.071327
v -0.067902 0.450861 0.092105
v -0.079560 0.450861 0.123464
v -0.112987 0.450861 0.122067
v -0.121988 0.450861 0.089844
v -0.095312 0.468450 0.099761
v -0.194660 0.422471 0.132018
v -0.210412 0.440060 0.108315
v -0.176985 0.440060 0.109712
v -0.167984 0.440060 0.141935
v -0.195848 0.440060 0.160453
v -0.222070 0.440060 0.139674
v -0.193471 0.468520 0.103583
v -0.167250 0.468520 0.124361
v -0.178908 0.468520 0.155721
v -0.212335 0.468520 0.154324
v -0.221336 0.468520 0.122101
v -0.194660 0.486109 0.132018
vn -0.4907 -0.8654 -0.1018
vn -0.9614 0.0000 -0.2750
vn -0.4857 0.8681 -0.1025
vn 0.4290 0.8672 0.2527
vn 0.7226 -0.0000 0.6913
vn 0.8968 -0.0139 0.4422
vn 0.4327 -0.8664 0.2492
vn 0.2751 0.8481 0.4527
vn -0.0423 -0.8311 0.5546
vn -0.8168 0.0035 -0.5769
vn 0.6183 -0.0139 0.7858
vn -0.4747 -0.8429 -0.2533
vn -0.4676 0.8477 -0.2504
vn 0.2773 -0.8475 0.4526
vn -0.6584 0.0694 0.7495
vn -0.0389 0.8307 0.5554
vn 0.0589 -0.0103 -0.9982
vn -0.0871 0.0226 0.9959
vn 0.0323 0.8303 -0.5564
vn 0.0353 -0.8330 -0.5522
vn -0.6575 -0.7461 0.1054
vn 0.4113 0.7921 -0.4511
vn 0.4101 -0.7985 -0.4408
vn -0.3970 -0.8062 0.4386
vn -0.3917 0.8062 0.4434
vn 0.6811 -0.0526 -0.7303
vn -0.8740 0.1220 -0.4704
vn -0.6460 0.7546 0.1154
vn 0.9719 -0.1442 -0.1858
vn -0.9838 0.0972 0.1505
vn 0.6557 0.7426 -0.1365
vn 0.6822 -0.7224 -0.1124
vn 0.2126 0.7745 -0.5958
vn 0.5587 0.7667 0.3162
vn 0.5101 -0.7975 0.3222
vn -0.5088 -0.7991 -0.3204
vn -0.5201 0.8179 -0.2460
vn 0.8397 -0.1270 0.5280
vn 0.1458 0.6536 0.7427
vn 0.4634 0.0006 0.8862
vn -0.7186 0.1673 -0.6751
vn 0.6410 0.5898 0.4911
vn -0.1666 -0.8412 0.5144
vn -0.7895 -0.5312 -0.3075
vn -0.9077 -0.0445 0.4172
vn -0.6800 -0.7251 0.1091
vn -0.4093 -0.4527 -0.7921
vn 0.7681 0.6402 0.0109
vn -0.4465 0.0608 0.8927
vn 0.1033 -0.0002 -0.9946
vn -0.5830 -0.7209 -0.3748
vn 0.8068 -0.0343 -0.5898
vn -0.2615 0.7400 0.6197
vn -0.5581 -0.7974 -0.2293
vn 0.2404 -0.6868 -0.6859
vn 0.5389 0.7971 0.2724
vn 0.5242 -0.0014 -0.8516
vn 0.4026 -0.8355 -0.3740
vn 0.5781 0.7714 0.2658
vn -0.9989 0.0000 -0.0477
vn 0.9940 -0.0000 -0.1090
vn -0.3719 0.8198 0.4355
vn -0.1697 -0.8271 -0.5359
vn 0.0677 0.7738 0.6298
vn -0.5601 -0.7999 0.2157
vn 0.0362 -0.8103 -0.5849
vn 0.4942 0.8235 -0.2786
vn -0.4753 0.0011 0.8798
vn -0.9998 0.0115 -0.0134
vn -0.1637 0.8344 -0.5263
vn 0.3201 -0.0068 0.9474
vn -0.2976 0.0066 -0.9547
vn 0.1693 0.8271 0.5360
vn 0.1732 -0.8344 0.5233
vn -0.4953 -0.7622 0.4168
vn 0.6279 0.6243 -0.4647
vn 0.4473 -0.8353 0.3198
vn -0.6315 -0.7264 0.2711
vn -0.4491 0.8368 -0.3133
vn 0.9686 -0.0531 -0.2427
vn -0.5828 0.2712 0.7660
vn -0.4683 0.8722 -0.1414
vn 0.9601 -0.1045 -0.2595
vn -0.9545 0.1103 0.2769
vn 0.4970 0.7634 -0.4125
vn 0.4700 -0.8706 0.1456
vn 0.4832 0.2758 0.8309
vn 0.6151 0.7821 -0.1001
vn 0.5906 -0.6978 0.4053
vn -0.1998 -0.5451 0.8142
vn -0.1754 0.9348 0.3088
vn 0.9981 -0.0342 -0.0519
vn -0.3485 0.0000 0.9373
vn -0.5684 -0.7952 0.2113
vn -0.5684 0.7952 0.2113
vn 0.2923 -0.7952 0.5313
vn 0.2923 0.7952 0.5313
vn -0.9987 0.0000 0.0514
vn 0.0253 -0.7947 -0.6065
vn -0.5690 -0.7947 -0.2115
vn 0.5847 -0.7947 -0.1633
vn 0.3360 -0.7947 0.5056
vn -0.3770 -0.7947 0.4758
vn -0.9207 -0.1876 -0.3423
vn 0.0410 -0.1876 -0.9814
vn 0.9460 -0.1876 -0.2643
vn 0.5437 -0.1876 0.8181
vn -0.6100 -0.1876 0.7698
vn -0.5437 0.1876 -0.8181
vn 0.6100 0.1876 -0.7698
vn 0.9207 0.1876 0.3423
vn -0.0410 0.1876 0.9814
vn -0.9460 0.1876 0.2643
vn -0.3360 0.7947 -0.5056
vn 0.3770 0.7947 -0.4758
vn 0.5690 0.7947 0.2115
vn -0.0253 0.7947 0.6065
vn -0.5847 0.7947 0.1633
usemtl Worm
s off
f 1//1 2//1 4//1 3//1
f 3//2 4//2 6//2 5//2
f 5//3 6//3 8//3 7//3
f 7//4 8//4 10//4 9//4
f 12//5 10//5 101//5 102//5
f 9//6 10//6 12//6 11//6
f 11//7 12//7 2//7 1//7
f 7//8 9//8 17//8 16//8
f 18//9 13//9 19//9 24//9
f 3//10 5//10 15//10 14//10
f 9//11 11//11 18//11 17//11
f 1//12 3//12 14//12 13//12
f 5//13 7//13 16//13 15//13
f 11//14 1//14 13//14 18//14
f 23//15 24//15 30//15 29//15
f 16//16 17//16 23//16 22//16
f 14//17 15//17 21//17 20//17
f 17//18 18//18 24//18 23//18
f 15//19 16//19 22//19 21//19
f 13//20 14//20 20//20 19//20
f 30//21 25//21 31//21 36//21
f 21//22 22//22 28//22 27//22
f 19//23 20//23 26//23 25//23
f 24//24 19//24 25//24 30//24
f 22//25 23//25 29//25 28//25
f 20//26 21//26 27//26 26//26
f 35//27 36//27 42//27 41//27
f 28//28 29//28 35//28 34//28
f 26//29 27//29 33//29 32//29
f 29//30 30//30 36//30 35//30
f 27//31 28//31 34//31 33//31
f 25//32 26//32 32//32 31//32
f 40//33 41//33 47//33 46//33
f 33//34 34//34 40//34 39//34
f 31//35 32//35 38//35 37//35
f 36//36 31//36 37//36 42//36
f 34//37 35//37 41//37 40//37
f 32//38 33//38 39//38 38//38
f 45//39 46//39 52//39 51//39
f 38//40 39//40 45//40 44//40
f 41//41 42//41 48//41 47//41
f 39//42 40//42 46//42 45//42
f 37//43 38//43 44//43 43//43
f 42//44 37//44 43//44 48//44
f 50//45 51//45 57//45 56//45
f 43//46 44//46 50//46 49//46
f 48//47 43//47 49//47 54//47
f 46//48 47//48 53//48 52//48
f 44//49 45//49 51//49 50//49
f 47//50 48//50 54//50 53//50
f 55//51 56//51 62//51 61//51
f 53//52 54//52 60//52 59//52
f 51//53 52//53 58//53 57//53
f 49//54 50//54 56//54 55//54
f 54//55 49//55 55//55 60//55
f 52//56 53//56 59//56 58//56
f 65//57 66//57 72//57 71//57
f 60//58 55//58 61//58 66//58
f 58//59 59//59 65//59 64//59
f 56//60 57//60 63//60 62//60
f 59//61 60//61 66//61 65//61
f 57//62 58//62 64//62 63//62
f 72//63 67//63 73//63 78//63
f 63//64 64//64 70//64 69//64
f 61//65 62//65 68//65 67//65
f 66//66 61//66 67//66 72//66
f 64//67 65//67 71//67 70//67
f 62//68 63//68 69//68 68//68
f 77//69 78//69 84//69 83//69
f 70//70 71//70 77//70 76//70
f 68//71 69//71 75//71 74//71
f 71//72 72//72 78//72 77//72
f 69//73 70//73 76//73 75//73
f 67//74 68//74 74//74 73//74
f 84//75 79//75 85//75 90//75
f 75//76 76//76 82//76 81//76
f 73//77 74//77 80//77 79//77
f 78//78 73//78 79//78 84//78
f 76//79 77//79 83//79 82//79
f 74//80 75//80 81//80 80//80
f 89//81 90//81 96//81 95//81
f 82//82 83//82 89//82 88//82
f 80//83 81//83 87//83 86//83
f 83//84 84//84 90//84 89//84
f 81//85 82//85 88//85 87//85
f 79//86 80//86 86//86 85//86
f 91//87 92//87 93//87 94//87 95//87 96//87
f 87//88 88//88 94//88 93//88
f 85//89 86//89 92//89 91//89
f 90//90 85//90 91//90 96//90
f 88//91 89//91 95//91 94//91
f 86//92 87//92 93//92 92//92
f 97//93 98//93 102//93 101//93 100//93 99//93
f 4//94 2//94 98//94 97//94
f 8//95 6//95 99//95 100//95
f 2//96 12//96 102//96 98//96
f 10//97 8//97 100//97 101//97
f 6//98 4//98 97//98 99//98
usemtl Black
f 103//99 104//99 105//99
f 104//100 103//100 108//100
f 103//101 105//101 106//101
f 103//102 106//102 107//102
f 103//103 107//103 108//103
f 104//104 108//104 113//104
f 105//105 104//105 109//105
f 106//106 105//106 110//106
f 107//107 106//107 111//107
f 108//108 107//108 112//108
f 104//109 113//109 109//109
f 105//110 109//110 110//110
f 106//111 110//111 111//111
f 107//112 111//112 112//112
f 108//113 112//113 113//113
f 109//114 113//114 114//114
f 110//115 109//115 114//115
f 111//116 110//116 114//116
f 112//117 111//117 114//117
f 113//118 112//118 114//118
f 115//99 116//99 117//99
f 116//100 115//100 120//100
f 115//101 117//101 118//101
f 115//102 118//102 119//102
f 115//103 119//103 120//103
f 116//104 120//104 125//104
f 117//105 116//105 121//105
f 118//106 117//106 122//106
f 119//107 118//107 123//107
f 120//108 119//108 124//108
f 116//109 125//109 121//109
f 117//110 121//110 122//110
f 118//111 122//111 123//111
f 119//112 123//112 124//112
f 120//113 124//113 125//113
f 121//114 125//114 126//114
f 122//115 121//115 126//115
f 123//116 122//116 126//116
f 124//117 123//117 126//117
f 125//118 124//118 126//118
